<?xml version="1.0" encoding="utf-8"?>
<!-- Generator: Adobe Illustrator 25.3.1, SVG Export Plug-In . SVG Version: 6.00 Build 0)  -->
<svg version="1.1" id="Layer_1" xmlns="http://www.w3.org/2000/svg" xmlns:xlink="http://www.w3.org/1999/xlink" x="0px" y="0px"
	 viewBox="0 0 95 100" style="enable-background:new 0 0 95 100;" xml:space="preserve">
<style type="text/css">
	.st0{fill:#6D6D6D;}
	.st1{fill:#2D2D2D;}
</style>
<rect class="st0" width="95" height="100"/>
<circle class="st1" cx="3.6" cy="3.6" r="3.6"/>
<circle class="st1" cx="17" cy="3.6" r="3.6"/>
<circle class="st1" cx="30.5" cy="3.6" r="3.6"/>
<circle class="st1" cx="43.9" cy="3.6" r="3.6"/>
<circle class="st1" cx="10.3" cy="10.7" r="3.6"/>
<circle class="st1" cx="23.7" cy="10.7" r="3.6"/>
<circle class="st1" cx="37.2" cy="10.7" r="3.6"/>
<circle class="st1" cx="50.6" cy="10.7" r="3.6"/>
<circle class="st1" cx="3.6" cy="17.9" r="3.6"/>
<circle class="st1" cx="17" cy="17.9" r="3.6"/>
<circle class="st1" cx="30.5" cy="17.9" r="3.6"/>
<circle class="st1" cx="43.9" cy="17.9" r="3.6"/>
<circle class="st1" cx="10.3" cy="25" r="3.6"/>
<circle class="st1" cx="23.7" cy="25" r="3.6"/>
<circle class="st1" cx="37.2" cy="25" r="3.6"/>
<circle class="st1" cx="50.6" cy="25" r="3.6"/>
<circle class="st1" cx="3.6" cy="32.1" r="3.6"/>
<circle class="st1" cx="17" cy="32.1" r="3.6"/>
<circle class="st1" cx="30.5" cy="32.1" r="3.6"/>
<circle class="st1" cx="43.9" cy="32.1" r="3.6"/>
<circle class="st1" cx="10.3" cy="39.3" r="3.6"/>
<circle class="st1" cx="23.7" cy="39.3" r="3.6"/>
<circle class="st1" cx="37.2" cy="39.3" r="3.6"/>
<circle class="st1" cx="50.6" cy="39.3" r="3.6"/>
<circle class="st1" cx="3.6" cy="46.4" r="3.6"/>
<circle class="st1" cx="17" cy="46.4" r="3.6"/>
<circle class="st1" cx="30.5" cy="46.4" r="3.6"/>
<circle class="st1" cx="43.9" cy="46.4" r="3.6"/>
<circle class="st1" cx="10.3" cy="53.6" r="3.6"/>
<circle class="st1" cx="23.7" cy="53.6" r="3.6"/>
<circle class="st1" cx="37.2" cy="53.6" r="3.6"/>
<circle class="st1" cx="50.6" cy="53.6" r="3.6"/>
<circle class="st1" cx="3.6" cy="60.7" r="3.6"/>
<circle class="st1" cx="17" cy="60.7" r="3.6"/>
<circle class="st1" cx="30.5" cy="60.7" r="3.6"/>
<circle class="st1" cx="43.9" cy="60.7" r="3.6"/>
<circle class="st1" cx="10.3" cy="67.9" r="3.6"/>
<circle class="st1" cx="23.7" cy="67.9" r="3.6"/>
<circle class="st1" cx="37.2" cy="67.9" r="3.6"/>
<circle class="st1" cx="50.6" cy="67.9" r="3.6"/>
<circle class="st1" cx="3.6" cy="75" r="3.6"/>
<circle class="st1" cx="17" cy="75" r="3.6"/>
<circle class="st1" cx="30.5" cy="75" r="3.6"/>
<circle class="st1" cx="43.9" cy="75" r="3.6"/>
<circle class="st1" cx="10.3" cy="82.1" r="3.6"/>
<circle class="st1" cx="23.7" cy="82.1" r="3.6"/>
<circle class="st1" cx="37.2" cy="82.1" r="3.6"/>
<circle class="st1" cx="50.6" cy="82.1" r="3.6"/>
<circle class="st1" cx="3.6" cy="89.3" r="3.6"/>
<circle class="st1" cx="17" cy="89.3" r="3.6"/>
<circle class="st1" cx="30.5" cy="89.3" r="3.6"/>
<circle class="st1" cx="43.9" cy="89.3" r="3.6"/>
<circle class="st1" cx="10.3" cy="96.4" r="3.6"/>
<circle class="st1" cx="23.7" cy="96.4" r="3.6"/>
<circle class="st1" cx="37.2" cy="96.4" r="3.6"/>
<circle class="st1" cx="50.6" cy="96.4" r="3.6"/>
<circle class="st1" cx="57.8" cy="3.6" r="3.6"/>
<circle class="st1" cx="71.2" cy="3.6" r="3.6"/>
<circle class="st1" cx="84.7" cy="3.6" r="3.6"/>
<circle class="st1" cx="64.5" cy="10.7" r="3.6"/>
<circle class="st1" cx="78" cy="10.7" r="3.6"/>
<circle class="st1" cx="91.4" cy="10.7" r="3.6"/>
<circle class="st1" cx="57.8" cy="17.9" r="3.6"/>
<circle class="st1" cx="71.2" cy="17.9" r="3.6"/>
<circle class="st1" cx="84.7" cy="17.9" r="3.6"/>
<circle class="st1" cx="64.5" cy="25" r="3.6"/>
<circle class="st1" cx="78" cy="25" r="3.6"/>
<circle class="st1" cx="91.4" cy="25" r="3.6"/>
<circle class="st1" cx="57.8" cy="32.1" r="3.6"/>
<circle class="st1" cx="71.2" cy="32.1" r="3.6"/>
<circle class="st1" cx="84.7" cy="32.1" r="3.6"/>
<circle class="st1" cx="64.5" cy="39.3" r="3.6"/>
<circle class="st1" cx="78" cy="39.3" r="3.6"/>
<circle class="st1" cx="91.4" cy="39.3" r="3.6"/>
<circle class="st1" cx="57.8" cy="46.4" r="3.6"/>
<circle class="st1" cx="71.2" cy="46.4" r="3.6"/>
<circle class="st1" cx="84.7" cy="46.4" r="3.6"/>
<circle class="st1" cx="64.5" cy="53.6" r="3.6"/>
<circle class="st1" cx="78" cy="53.6" r="3.6"/>
<circle class="st1" cx="91.4" cy="53.6" r="3.6"/>
<circle class="st1" cx="57.8" cy="60.7" r="3.6"/>
<circle class="st1" cx="71.2" cy="60.7" r="3.6"/>
<circle class="st1" cx="84.7" cy="60.7" r="3.6"/>
<circle class="st1" cx="64.5" cy="67.9" r="3.6"/>
<circle class="st1" cx="78" cy="67.9" r="3.6"/>
<circle class="st1" cx="91.4" cy="67.9" r="3.6"/>
<circle class="st1" cx="57.8" cy="75" r="3.6"/>
<circle class="st1" cx="71.2" cy="75" r="3.6"/>
<circle class="st1" cx="84.7" cy="75" r="3.6"/>
<circle class="st1" cx="64.5" cy="82.1" r="3.6"/>
<circle class="st1" cx="78" cy="82.1" r="3.6"/>
<circle class="st1" cx="91.4" cy="82.1" r="3.6"/>
<circle class="st1" cx="57.8" cy="89.3" r="3.6"/>
<circle class="st1" cx="71.2" cy="89.3" r="3.6"/>
<circle class="st1" cx="84.7" cy="89.3" r="3.6"/>
<circle class="st1" cx="64.5" cy="96.4" r="3.6"/>
<circle class="st1" cx="78" cy="96.4" r="3.6"/>
<circle class="st1" cx="91.4" cy="96.4" r="3.6"/>
</svg>
