<?xml version="1.0" encoding="utf-8"?>
<!-- Generator: Adobe Illustrator 28.2.0, SVG Export Plug-In . SVG Version: 6.00 Build 0)  -->
<svg version="1.1" id="Layer_1" xmlns="http://www.w3.org/2000/svg" xmlns:xlink="http://www.w3.org/1999/xlink" x="0px" y="0px"
	 viewBox="0 0 74 74" style="enable-background:new 0 0 74 74;" xml:space="preserve">
<style type="text/css">
	.st0{fill:#4D4D4D;}
</style>
<path class="st0" d="M1.2,0L0,1.2v16l1.1,1.1l34.9-5.8l1.1,1.1v11.1l35.5-5.9l1.5-1.5v-16L72.8,0H1.2z M1.5,30.6L0,32.1v9.9L1.1,43
	L37,37V24.7C37,24.7,1.5,30.6,1.5,30.6z M37,37v12.3l35.5-5.9l1.5-1.5v-9.9L72.9,31L37,37z M1.5,55.3L0,56.7v16L1.2,74h71.5l1.2-1.2
	v-16l-1.1-1.1l-34.9,5.8L37,60.4V49.3L1.5,55.3L1.5,55.3z"/>
</svg>
