<?xml version="1.0" encoding="utf-8"?>
<!-- Generator: Adobe Illustrator 28.2.0, SVG Export Plug-In . SVG Version: 6.00 Build 0)  -->
<svg version="1.1" id="Layer_1" xmlns="http://www.w3.org/2000/svg" xmlns:xlink="http://www.w3.org/1999/xlink" x="0px" y="0px"
	 viewBox="0 0 150 150" style="enable-background:new 0 0 150 150;" xml:space="preserve">
<style type="text/css">
	.st0{fill:#4D4D4D;}
</style>
<path class="st0" d="M61.2,42.1c3.1,3.1,4.3,7.6,3.1,11.8c3.8-2.3,8.2-3.5,12.6-3.5H77c6.5,0,12.8,2.6,17.4,7.3l0,0
	c3.7,3.9,9.8,4,13.7,0.3c3.9-3.7,4-9.8,0.3-13.7c-0.1-0.1-0.2-0.2-0.3-0.3c-8.2-8.3-19.4-13-31-13h-0.2c-8.7,0-17.3,2.6-24.5,7.5
	h0.3C55.9,38.5,58.9,39.8,61.2,42.1L61.2,42.1z"/>
<path class="st0" d="M101.1,89.7c-2.6,0-5,1-6.8,2.8l0,0c-4.6,4.6-10.8,7.2-17.3,7.2h-0.1c-4.4,0-8.8-1.2-12.6-3.6
	c0.3,1.1,0.4,2.1,0.4,3.2c0,6.7-5.4,12.1-12.1,12.1h-0.3c7.2,4.9,15.8,7.6,24.5,7.6h0.2c11.6,0,22.7-4.6,30.9-12.8
	c3.8-3.8,3.8-9.9,0.1-13.7C106.1,90.7,103.6,89.7,101.1,89.7L101.1,89.7L101.1,89.7z"/>
<path class="st0" d="M44,90.8c2.3-2.3,5.3-3.6,8.5-3.5c1.1,0,2.2,0.2,3.3,0.4c-4.7-7.8-4.7-17.6,0-25.4c-6.4,1.8-13.1-2-14.9-8.5
	c-0.3-1-0.4-2.1-0.4-3.2v-0.3c-10.1,14.8-10.1,34.4-0.1,49.3v-0.2C40.5,96.1,41.7,93,44,90.8L44,90.8z"/>
<path class="st0" d="M52.7,40.7c-2.8,0-4.7,1.1-7,3.5c-2.2,2.2-2.9,4.2-2.9,6.5c0,5.5,4.5,9.9,9.9,9.9s9.9-4.5,9.9-9.9
	C62.6,45.1,58.1,40.7,52.7,40.7L52.7,40.7z"/>
<path class="st0" d="M42.6,99.3c0,2.7,1.1,4.7,3.5,7c2.2,2.2,4.2,2.9,6.5,2.9c5.5,0,9.9-4.5,9.9-9.9s-4.5-9.9-9.9-9.9
	C47,89.5,42.6,93.9,42.6,99.3L42.6,99.3L42.6,99.3z"/>
</svg>
