<?xml version="1.0" encoding="utf-8"?>
<!-- Generator: Adobe Illustrator 28.2.0, SVG Export Plug-In . SVG Version: 6.00 Build 0)  -->
<svg version="1.1" id="Layer_1" xmlns="http://www.w3.org/2000/svg" xmlns:xlink="http://www.w3.org/1999/xlink" x="0px" y="0px"
	 viewBox="0 0 364 240" style="enable-background:new 0 0 364 240;" xml:space="preserve">
<style type="text/css">
	.st0{fill:#4D4D4D;}
</style>
<g id="Layer_2_00000098212429450127383020000009621070944031263639_">
	<g id="Layer_1-2">
		<path class="st0" d="M89.7,59.1h67.8L147,99.3c-1.4,5.4-4.6,10.1-9,13.5c-4.4,3.4-9.8,5.2-15.3,5.1H91.2c-6.9-0.1-13.6,2.1-19,6.3
			c-5.6,4.3-9.6,10.3-11.5,17.1c-1.4,5-1.5,10.2-0.5,15.3c1,4.6,3,9,5.8,12.8c2.9,3.8,6.6,6.8,10.8,8.9c4.5,2.2,9.4,3.3,14.4,3.3
			h19.2c3.5-0.1,6.8,1.6,8.8,4.4c2.3,2.7,3,6.4,2,9.8l-12,44.4h-21c-13.8,0.1-27.5-3.1-39.8-9.4c-11.8-6-22.1-14.6-30.2-25.1
			C10.3,195,4.7,182.9,1.9,170C-1,156.4-0.6,142.4,3,129l1.2-4.5c5.1-18.8,16.2-35.4,31.6-47.2c7.6-5.7,16-10.2,25-13.3
			C70.1,60.7,79.9,59.1,89.7,59.1z"/>
		<path class="st0" d="M123.9,240L183,18.6c1.4-5.4,4.6-10.1,9-13.5c4.4-3.4,9.8-5.2,15.3-5.1H270c13.8-0.1,27.5,3.1,39.8,9.4
			c23.9,12.2,41,34.4,46.6,60.6c3,13.6,2.6,27.6-1.2,41l-1.2,4.5c-2.5,9.4-6.6,18.4-12,26.5c-16.3,24.5-43.8,39.2-73.2,39.2h-54.3
			l10.8-40.5c1.5-5.3,4.7-9.9,9-13.2c4.4-3.4,9.8-5.2,15.3-5.1H267c14.4,0,27-9.7,30.6-23.7c1.4-4.8,1.5-9.9,0.4-14.8
			c-1-4.6-3-9-5.9-12.8c-2.9-3.8-6.6-6.8-10.8-9c-4.4-2.3-9.4-3.5-14.4-3.5h-33.6l-43.8,162.9c-1.5,5.3-4.7,9.9-9,13.2
			c-4.3,3.4-9.6,5.2-15,5.1H123.9z"/>
	</g>
</g>
</svg>
