<?xml version="1.0" encoding="utf-8"?>
<!-- Generator: Adobe Illustrator 28.2.0, SVG Export Plug-In . SVG Version: 6.00 Build 0)  -->
<svg version="1.1" id="Layer_1" xmlns="http://www.w3.org/2000/svg" xmlns:xlink="http://www.w3.org/1999/xlink" x="0px" y="0px"
	 viewBox="0 0 79.8 74.5" style="enable-background:new 0 0 79.8 74.5;" xml:space="preserve">
<style type="text/css">
	.st0{fill:#4D4D4D;}
</style>
<path class="st0" d="M56.4,59.2c-6-6-9.3-13.9-9.3-22.3v-13c0-0.5-0.4-0.8-0.8-0.8c-0.5,0-0.8,0.4-0.8,0.8c0,8.4-3.3,16.4-9.3,22.3
	L16.6,65.9c-0.2,0.2-0.3,0.4-0.2,0.6c0,0.2,0.1,0.5,0.3,0.6c6.8,4.8,14.8,7.4,23.2,7.4s16.3-2.6,23.2-7.4c0.2-0.1,0.3-0.4,0.3-0.6
	c0-0.2-0.1-0.5-0.2-0.6L56.4,59.2L56.4,59.2z M21,10.8V0.7c0-0.4-0.4-0.8-0.8-0.8c-0.1,0-0.3,0-0.4,0.1c-12.3,7.1-20,20.4-20,34.6
	c0,1.1,0.1,2.4,0.2,3.7c0,0.3,0.2,0.6,0.5,0.7c0.1,0,0.2,0,0.3,0c0.2,0,0.4-0.1,0.6-0.2l13.7-13.7C18.9,21.3,21.1,16.2,21,10.8
	L21,10.8z M59.8,0c-0.3-0.1-0.6-0.1-0.8,0c-0.3,0.1-0.4,0.4-0.4,0.7v36.2c0,5.4,2.1,10.4,5.9,14.2l6.7,6.7c0.2,0.2,0.4,0.2,0.6,0.2
	c0,0,0,0,0.1,0c0.2,0,0.5-0.1,0.6-0.3c4.8-6.8,7.4-14.8,7.4-23.1C79.8,20.4,72.2,7.1,59.8,0L59.8,0z M28.2,38.1L8.5,57.8
	C8.3,57.9,8.1,58,7.9,58c0,0,0,0-0.1,0c-0.2,0-0.5-0.1-0.6-0.3c-1.1-1.5-2.1-3.2-3-4.8c-0.2-0.3-0.1-0.7,0.2-1l18.8-18.8
	c6-6,9.3-13.9,9.3-22.3c0-0.5,0.4-0.8,0.8-0.8c0.4,0,0.8,0.4,0.8,0.8v13C34.1,29.2,32,34.3,28.2,38.1z"/>
</svg>
