<?xml version="1.0" encoding="utf-8"?>
<!-- Generator: Adobe Illustrator 28.2.0, SVG Export Plug-In . SVG Version: 6.00 Build 0)  -->
<svg version="1.1" id="Layer_1" xmlns="http://www.w3.org/2000/svg" xmlns:xlink="http://www.w3.org/1999/xlink" x="0px" y="0px"
	 viewBox="0 0 878.6 240" style="enable-background:new 0 0 878.6 240;" xml:space="preserve">
<style type="text/css">
	.st0{fill:#4D4D4D;}
</style>
<g id="Layer_2_00000148652007134601484770000015636097666279192983_">
	<g id="Layer_1-2">
		<path class="st0" d="M365.1,14.4l-43.2,160.2c-2.5,9.4-6.6,18.4-12,26.6c-5.2,7.9-11.8,14.9-19.4,20.7c-7.6,5.7-16,10.3-25,13.3
			c-9.3,3.2-19,4.8-28.8,4.8H0L60.3,13.5c0.9-3.9,3.2-7.4,6.5-9.8C70,1.3,73.9,0,78,0h32.1c3.6-0.1,7,1.6,9.2,4.5
			c2.3,2.8,3,6.5,2,9.9L76.5,181.2h60.9l45-167.7c0.9-3.9,3.2-7.4,6.4-9.8c3.1-2.4,7-3.8,11-3.8h32.4c3.6-0.1,7,1.6,9,4.5
			c2.2,2.8,2.8,6.5,1.8,9.9l-44.7,166.8h36.6c7,0.1,13.8-2.2,19.4-6.4c5.6-4.2,9.6-10.2,11.2-16.9l38.7-144.3
			c0.9-3.9,3.2-7.4,6.5-9.8c3.2-2.5,7.2-3.8,11.2-3.8H354c3.6-0.1,7,1.6,9.1,4.5C365.4,7.3,366.1,11,365.1,14.4z"/>
		<path class="st0" d="M406.8,149.4l-20.7,77.1c-0.9,3.9-3.2,7.4-6.5,9.8c-3.2,2.5-7.2,3.8-11.2,3.8h-32.1c-3.5,0-6.8-1.6-8.9-4.5
			c-2.2-2.7-3-6.3-2-9.6l56.7-212.4c0.9-3.9,3.2-7.4,6.5-9.8c3.2-2.5,7.2-3.8,11.2-3.8h46.5l-23.7,90.6h75l20.7-77.1
			c0.9-3.9,3.2-7.4,6.5-9.8c3.1-2.4,7-3.8,10.9-3.8h47.1L522,226.5c-0.9,3.9-3.2,7.4-6.5,9.8c-3.1,2.4-7,3.8-10.9,3.8h-32.4
			c-3.6,0.1-7-1.6-9-4.5c-2.2-2.7-2.8-6.3-1.8-9.6l20.4-76.5H406.8z"/>
		<path class="st0" d="M539.7,225.6L600.3,0h189.6c13.9-0.2,27.7,3.1,40.1,9.4c23.9,12.2,41,34.5,46.6,60.7
			c3,13.6,2.6,27.7-1.2,41.1l-30.9,115.2c-0.9,3.9-3.2,7.4-6.5,9.8c-3.2,2.5-7.2,3.8-11.2,3.8h-32.1c-3.6,0.1-7-1.6-9.2-4.5
			c-2.3-2.8-3-6.5-2-9.9l32.8-121.2c2.7-10.9,0.3-22.4-6.5-31.3c-3.3-4.3-7.5-7.8-12.3-10.4c-5-2.6-10.7-4-16.3-3.9h-13.8l-45,167.7
			c-0.9,3.9-3.2,7.4-6.5,9.8c-3.1,2.4-7,3.8-11,3.8h-32.4c-3.6,0.1-7-1.6-9-4.5c-2.2-2.8-2.8-6.5-1.8-9.9l44.7-166.8h-60.9
			l-45,167.7c-0.9,3.9-3.2,7.4-6.4,9.8c-3.2,2.5-7.2,3.8-11.2,3.8h-32.1c-3.6,0.1-7-1.6-9.2-4.5C539.4,232.7,538.7,229,539.7,225.6z
			"/>
	</g>
</g>
</svg>
